<?xml version="1.0" standalone="no"?>
<!DOCTYPE svg PUBLIC "-//W3C//DTD SVG 20010904//EN"
 "http://www.w3.org/TR/2001/REC-SVG-20010904/DTD/svg10.dtd">
<svg version="1.0" xmlns="http://www.w3.org/2000/svg"
 width="260.000000pt" height="260.000000pt" viewBox="0 0 260.000000 260.000000"
 preserveAspectRatio="xMidYMid meet">
<metadata>
Created by potrace 1.11, written by Peter Selinger 2001-2013
</metadata>
<g transform="translate(0.000000,260.000000) scale(0.100000,-0.100000)"
fill="#000000" stroke="none">
<path d="M429 1550 l-23 -70 -58 0 -59 0 3 -62 3 -63 33 -3 c36 -4 36 -7 6
-79 -13 -32 -15 -33 -73 -33 l-61 0 0 -49 c0 -55 17 -81 55 -81 l24 0 -16 -45
c-22 -66 -15 -75 61 -75 l64 0 19 58 20 57 63 3 62 3 -7 -28 c-5 -15 -9 -41
-9 -58 l-1 -30 66 -3 66 -3 18 61 18 60 59 0 58 0 0 49 c0 68 -7 81 -42 81
-32 0 -32 4 -2 78 12 31 15 32 68 32 l56 0 0 53 c0 58 -12 77 -48 77 -17 0
-22 4 -19 14 18 47 29 97 24 110 -5 12 -21 16 -70 16 l-63 0 -23 -70 -22 -70
-60 0 c-32 0 -59 4 -59 8 0 5 7 30 16 55 22 64 10 77 -67 77 l-58 0 -22 -70z
m201 -208 c0 -5 -7 -29 -16 -55 l-16 -47 -59 0 c-32 0 -59 4 -59 8 0 5 7 29
16 55 l16 47 59 0 c32 0 59 -4 59 -8z"/>
<path d="M907 1613 c-11 -10 -8 -92 3 -114 9 -16 22 -19 85 -19 l75 0 0 -239
c0 -271 -7 -251 91 -251 l59 0 0 245 0 245 85 0 85 0 0 50 c0 37 -5 55 -20 70
-19 19 -33 20 -238 20 -120 0 -222 -3 -225 -7z"/>
<path d="M1599 1610 c-116 -20 -185 -103 -164 -198 11 -50 65 -99 169 -155
107 -57 128 -76 110 -104 -10 -16 -30 -18 -148 -21 l-136 -3 0 -58 c0 -39 5
-63 15 -71 10 -8 56 -11 162 -8 135 3 153 5 197 28 56 29 86 75 86 133 0 76
-53 134 -183 200 -74 38 -117 70 -117 87 0 5 7 16 16 24 12 13 40 16 140 16
l124 0 0 60 c0 48 -4 61 -19 70 -22 11 -183 12 -252 0z"/>
<path d="M2143 1610 c-59 -12 -93 -32 -140 -83 -51 -55 -63 -96 -63 -213 0
-125 19 -184 80 -244 62 -63 117 -80 262 -80 l108 0 0 58 c0 32 -5 63 -12 70
-8 8 -46 12 -106 12 -51 0 -102 5 -113 10 -37 20 -49 63 -49 175 0 104 1 107
29 136 29 29 31 29 140 29 l111 0 0 60 c0 48 -4 61 -19 70 -23 12 -167 12
-228 0z"/>
</g>
</svg>
